<svg width="97" height="28" viewBox="0 0 97 28" fill="none" xmlns="http://www.w3.org/2000/svg">
<mask id="mask0_14_91" style="mask-type:alpha" maskUnits="userSpaceOnUse" x="5" y="3" width="18" height="22">
<path d="M14 24.8024C11.4974 24.1723 9.43128 22.7363 7.80155 20.4944C6.17182 18.2525 5.35731 15.7637 5.35803 13.0278V6.43825L14 3.19751L22.642 6.43825V13.0278C22.642 15.7644 21.8271 18.2536 20.1974 20.4955C18.5677 22.7374 16.5019 24.173 14 24.8024Z" fill="url(#paint0_linear_14_91)"/>
</mask>
<g mask="url(#mask0_14_91)">
<path d="M14 24.8024C11.4974 24.1723 9.43128 22.7363 7.80155 20.4944C6.17182 18.2525 5.35731 15.7637 5.35803 13.0278V6.43825L14 3.19751L22.642 6.43825V13.0278C22.642 15.7644 21.8271 18.2536 20.1974 20.4955C18.5677 22.7374 16.5019 24.173 14 24.8024Z" fill="url(#paint1_linear_14_91)"/>
<path fill-rule="evenodd" clip-rule="evenodd" d="M5.6778 13.0643C5.6771 15.6973 6.46147 18.0926 8.0309 20.2502C9.60034 22.4078 11.59 23.7898 14 24.3962C16.4093 23.7905 18.3987 22.4088 19.9681 20.2512C21.5375 18.0936 22.3222 15.698 22.3222 13.0643V6.72253L14 3.60364L5.6778 6.72253V13.0643ZM6.04076 6.97411L14 3.99125L21.9593 6.97411V13.0643C21.9593 15.6202 21.1995 17.9413 19.6746 20.0377C18.1706 22.1053 16.2809 23.4268 14.0001 24.0215C11.7185 23.4261 9.82842 22.1043 8.32443 20.0367C6.7995 17.9403 6.04009 15.6196 6.04076 13.0644V6.97411Z" fill="white"/>
<path opacity="0.1" d="M4.42556 19.9157L26.2032 6.09698L18.2656 -4.88535L5.3976 -0.256884L4.42556 19.9157Z" fill="black"/>
</g>
<path d="M13.7428 19.4662C13.8662 19.2339 13.9715 18.998 14.0586 18.7584C14.153 18.5189 14.2002 18.3192 14.2002 18.1595C14.2002 18.0216 14.1784 17.9055 14.1348 17.8111C14.0985 17.724 14.0114 17.6441 13.8735 17.5715C13.7428 17.5062 13.5396 17.4445 13.2637 17.3864C12.6394 17.2485 12.1494 17.0815 11.7937 16.8855C11.438 16.6823 11.1839 16.4427 11.0315 16.1669C10.8863 15.8838 10.8137 15.5571 10.8137 15.1869C10.8137 14.7731 10.9008 14.3629 11.0751 13.9564C11.2565 13.5499 11.507 13.1252 11.8264 12.6824C12.1458 12.2323 12.5088 11.7423 12.9153 11.2124L14.1022 9.67709C14.0731 9.67709 13.9715 9.68072 13.7973 9.68798C13.6303 9.69524 13.4234 9.7025 13.1766 9.70976C12.9371 9.71702 12.6939 9.72064 12.4471 9.72064H11.1404V8.99109H15.1911V9.5682L13.5577 11.7351C13.1367 12.3013 12.7955 12.7768 12.5342 13.1615C12.2801 13.5463 12.095 13.8875 11.9788 14.1851C11.8627 14.4755 11.8046 14.7658 11.8046 15.0562C11.8046 15.303 11.8482 15.5172 11.9353 15.6986C12.0224 15.8801 12.193 16.0398 12.4471 16.1778C12.7084 16.3157 13.1004 16.4463 13.6231 16.5698C14.0005 16.6569 14.3018 16.7549 14.5268 16.8638C14.7519 16.9726 14.9116 17.1069 15.0059 17.2666C15.1076 17.4263 15.1584 17.6332 15.1584 17.8873C15.1584 18.0978 15.1366 18.2938 15.0931 18.4753C15.0495 18.6641 14.9914 18.8383 14.9188 18.998C14.8462 19.1577 14.77 19.3138 14.6902 19.4662H13.7428Z" fill="#0B2447"/>
<path d="M14.1836 19.4662C14.307 19.2339 14.4122 18.998 14.4993 18.7584C14.5937 18.5189 14.6409 18.3192 14.6409 18.1595C14.6409 18.0216 14.6191 17.9055 14.5756 17.8111C14.5393 17.724 14.4522 17.6441 14.3142 17.5715C14.1836 17.5062 13.9803 17.4445 13.7045 17.3864C13.0802 17.2485 12.5902 17.0815 12.2345 16.8855C11.8788 16.6823 11.6247 16.4427 11.4722 16.1669C11.327 15.8838 11.2545 15.5571 11.2545 15.1869C11.2545 14.7731 11.3416 14.3629 11.5158 13.9564C11.6973 13.5499 11.9477 13.1252 12.2671 12.6824C12.5865 12.2323 12.9495 11.7423 13.356 11.2124L14.5429 9.67709C14.5139 9.67709 14.4122 9.68072 14.238 9.68798C14.071 9.69524 13.8642 9.7025 13.6173 9.70976C13.3778 9.71702 13.1346 9.72064 12.8878 9.72064H11.5811V8.99109H15.6318V9.5682L13.9985 11.7351C13.5774 12.3013 13.2362 12.7768 12.9749 13.1615C12.7208 13.5463 12.5357 13.8875 12.4196 14.1851C12.3034 14.4755 12.2453 14.7658 12.2453 15.0562C12.2453 15.303 12.2889 15.5172 12.376 15.6986C12.4631 15.8801 12.6337 16.0398 12.8878 16.1778C13.1491 16.3157 13.5411 16.4463 14.0638 16.5698C14.4413 16.6569 14.7425 16.7549 14.9676 16.8638C15.1926 16.9726 15.3523 17.1069 15.4467 17.2666C15.5483 17.4263 15.5991 17.6332 15.5991 17.8873C15.5991 18.0978 15.5773 18.2938 15.5338 18.4753C15.4902 18.6641 15.4322 18.8383 15.3596 18.998C15.287 19.1577 15.2108 19.3138 15.1309 19.4662H14.1836Z" fill="#4A9B90"/>
<path d="M14.8576 19.4662C14.981 19.2339 15.0863 18.998 15.1734 18.7584C15.2678 18.5189 15.315 18.3192 15.315 18.1595C15.315 18.0216 15.2932 17.9055 15.2496 17.8111C15.2133 17.724 15.1262 17.6441 14.9883 17.5715C14.8576 17.5062 14.6544 17.4445 14.3785 17.3864C13.7542 17.2485 13.2642 17.0815 12.9085 16.8855C12.5528 16.6823 12.2988 16.4427 12.1463 16.1669C12.0011 15.8838 11.9285 15.5571 11.9285 15.1869C11.9285 14.7731 12.0156 14.3629 12.1899 13.9564C12.3713 13.5499 12.6218 13.1252 12.9412 12.6824C13.2606 12.2323 13.6236 11.7423 14.0301 11.2124L15.217 9.67709C15.1879 9.67709 15.0863 9.68072 14.9121 9.68798C14.7451 9.69524 14.5382 9.7025 14.2914 9.70976C14.0519 9.71702 13.8087 9.72064 13.5619 9.72064H12.2552V8.99109H16.3059V9.5682L14.6725 11.7351C14.2515 12.3013 13.9103 12.7768 13.649 13.1615C13.3949 13.5463 13.2098 13.8875 13.0936 14.1851C12.9775 14.4755 12.9194 14.7658 12.9194 15.0562C12.9194 15.303 12.963 15.5172 13.0501 15.6986C13.1372 15.8801 13.3078 16.0398 13.5619 16.1778C13.8232 16.3157 14.2152 16.4463 14.7379 16.5698C15.1153 16.6569 15.4166 16.7549 15.6416 16.8638C15.8667 16.9726 16.0264 17.1069 16.1208 17.2666C16.2224 17.4263 16.2732 17.6332 16.2732 17.8873C16.2732 18.0978 16.2514 18.2938 16.2079 18.4753C16.1643 18.6641 16.1062 18.8383 16.0336 18.998C15.961 19.1577 15.8848 19.3138 15.805 19.4662H14.8576Z" fill="white"/>
<path d="M36.944 19.16C36.0907 19.16 35.4453 18.92 35.008 18.44C34.5707 17.9493 34.352 17.2507 34.352 16.344V15.704H36.016V16.472C36.016 17.1973 36.32 17.56 36.928 17.56C37.2267 17.56 37.4507 17.4747 37.6 17.304C37.76 17.1227 37.84 16.8347 37.84 16.44C37.84 15.9707 37.7333 15.56 37.52 15.208C37.3067 14.8453 36.912 14.4133 36.336 13.912C35.6107 13.272 35.104 12.696 34.816 12.184C34.528 11.6613 34.384 11.0747 34.384 10.424C34.384 9.53867 34.608 8.856 35.056 8.376C35.504 7.88533 36.1547 7.64 37.008 7.64C37.8507 7.64 38.4853 7.88533 38.912 8.376C39.3493 8.856 39.568 9.54933 39.568 10.456V10.92H37.904V10.344C37.904 9.96 37.8293 9.68267 37.68 9.512C37.5307 9.33067 37.312 9.24 37.024 9.24C36.4373 9.24 36.144 9.59733 36.144 10.312C36.144 10.7173 36.2507 11.096 36.464 11.448C36.688 11.8 37.088 12.2267 37.664 12.728C38.4 13.368 38.9067 13.9493 39.184 14.472C39.4613 14.9947 39.6 15.608 39.6 16.312C39.6 17.2293 39.3707 17.9333 38.912 18.424C38.464 18.9147 37.808 19.16 36.944 19.16ZM40.6091 7.8H45.4091V9.4H42.3691V12.36H44.7851V13.96H42.3691V17.4H45.4091V19H40.6091V7.8ZM48.9016 19.16C48.059 19.16 47.4136 18.92 46.9656 18.44C46.5283 17.96 46.3096 17.2827 46.3096 16.408V10.392C46.3096 9.51733 46.5283 8.84 46.9656 8.36C47.4136 7.88 48.059 7.64 48.9016 7.64C49.7443 7.64 50.3843 7.88 50.8216 8.36C51.2696 8.84 51.4936 9.51733 51.4936 10.392V11.576H49.8296V10.28C49.8296 9.58667 49.5363 9.24 48.9496 9.24C48.363 9.24 48.0696 9.58667 48.0696 10.28V16.536C48.0696 17.2187 48.363 17.56 48.9496 17.56C49.5363 17.56 49.8296 17.2187 49.8296 16.536V14.824H51.4936V16.408C51.4936 17.2827 51.2696 17.96 50.8216 18.44C50.3843 18.92 49.7443 19.16 48.9016 19.16ZM55.1066 19.16C54.2533 19.16 53.6026 18.92 53.1546 18.44C52.7066 17.9493 52.4826 17.2507 52.4826 16.344V7.8H54.2426V16.472C54.2426 16.856 54.3173 17.1333 54.4666 17.304C54.6266 17.4747 54.8506 17.56 55.1386 17.56C55.4266 17.56 55.6453 17.4747 55.7946 17.304C55.9546 17.1333 56.0346 16.856 56.0346 16.472V7.8H57.7306V16.344C57.7306 17.2507 57.5066 17.9493 57.0586 18.44C56.6106 18.92 55.96 19.16 55.1066 19.16ZM58.9841 7.8H61.5921C62.4988 7.8 63.1601 8.01333 63.5761 8.44C63.9921 8.856 64.2001 9.50133 64.2001 10.376V11.064C64.2001 12.2267 63.8161 12.9627 63.0481 13.272V13.304C63.4748 13.432 63.7735 13.6933 63.9441 14.088C64.1255 14.4827 64.2161 15.0107 64.2161 15.672V17.64C64.2161 17.96 64.2268 18.2213 64.2481 18.424C64.2695 18.616 64.3228 18.808 64.4081 19H62.6161C62.5521 18.8187 62.5095 18.648 62.4881 18.488C62.4668 18.328 62.4561 18.04 62.4561 17.624V15.576C62.4561 15.064 62.3708 14.7067 62.2001 14.504C62.0401 14.3013 61.7575 14.2 61.3521 14.2H60.7441V19H58.9841V7.8ZM61.3841 12.6C61.7361 12.6 61.9975 12.5093 62.1681 12.328C62.3495 12.1467 62.4401 11.8427 62.4401 11.416V10.552C62.4401 10.1467 62.3655 9.85333 62.2161 9.672C62.0775 9.49067 61.8535 9.4 61.5441 9.4H60.7441V12.6H61.3841ZM65.4373 7.8H70.2373V9.4H67.1973V12.36H69.6133V13.96H67.1973V17.4H70.2373V19H65.4373V7.8ZM73.4603 17.432L76.7243 9.4H73.6203V7.8H78.6123V9.368L75.3483 17.4H78.6123V19H73.4603V17.432ZM79.6091 7.8H84.4091V9.4H81.3691V12.36H83.7851V13.96H81.3691V17.4H84.4091V19H79.6091V7.8ZM86.7976 9.4H84.9576V7.8H90.3976V9.4H88.5576V19H86.7976V9.4ZM91.8754 7.8H94.2594L96.0834 19H94.3234L94.0034 16.776V16.808H92.0034L91.6834 19H90.0514L91.8754 7.8ZM93.7954 15.288L93.0114 9.752H92.9794L92.2114 15.288H93.7954Z" fill="#0B2447"/>
<defs>
<linearGradient id="paint0_linear_14_91" x1="14" y1="3.19751" x2="7.86852" y2="40.9241" gradientUnits="userSpaceOnUse">
<stop stop-color="#0B2447"/>
<stop offset="0.0001" stop-color="#0B2447"/>
<stop offset="1" stop-color="#446685"/>
</linearGradient>
<linearGradient id="paint1_linear_14_91" x1="14" y1="3.19751" x2="7.86852" y2="40.9241" gradientUnits="userSpaceOnUse">
<stop stop-color="#0B2447"/>
<stop offset="0.0001" stop-color="#0B2447"/>
<stop offset="1" stop-color="#446685"/>
</linearGradient>
</defs>
</svg>
